# xmcd
#
# Track frame offsets:
#	150
#	15973
#	36143
#	49991
#	65917
#	83097
#	102276
#	120197
#	134811
#	152584
#	167540
#	186005
#	208057
#	221619
#	237726
#	257147
#	277919
#	295139
#
# Disc length: 4149
#
# Revision: 2
# Processed by: cddbd v1.5.1PL0 Copyright (c) Steve Scherf et al.
# Submitted via: FreeRIP 2.60 
# Normalized: r0:TDELIM( - ),TSWAP
#
DISCID=05103312
DTITLE=Various Artist - Contemporary Country - Patriotic Country
DYEAR=2004
DGENRE=Country
TTITLE0=Lee Greenwood - God Bless The U.S.A. 2003
TTITLE1=Montgomery Gentry - My Town
TTITLE2=Brooks and Dunn - Till My Dyin' Day
TTITLE3=Martina McBride - God Bless America
TTITLE4=Aaron Tippin - Where The Stars And Stripes And The Eagle Fly
TTITLE5=Lonestar - I'm Already There
TTITLE6=Randy Travis - America Will Always Stand
TTITLE7=Phil Vassar - American Child
TTITLE8=Kenny Chesney - Back Where I Come From
TTITLE9=Alabama - Born Country
TTITLE10=Neal McCoy - I'm Your Biggest Fan
TTITLE11=Hank Williams, Jr. - America Will Survive
TTITLE12=BlackHawk - Days Of America
TTITLE13=The Charlie Daniels Band - This Ain't No Rag, It's A Flag
TTITLE14=The Warren Brothers - Hey Mr. President
TTITLE15=David Ball - Riding With Private Malone
TTITLE16=Dusty Drake - One Last Time
TTITLE17=Kenny Rogers - Homeland
EXTD=
EXTT0=
EXTT1=
EXTT2=
EXTT3=
EXTT4=
EXTT5=
EXTT6=
EXTT7=
EXTT8=
EXTT9=
EXTT10=
EXTT11=
EXTT12=
EXTT13=
EXTT14=
EXTT15=
EXTT16=
EXTT17=
PLAYORDER=
